<svg width="494" height="44" viewBox="0 0 494 44" fill="none" xmlns="http://www.w3.org/2000/svg">
<g clip-path="url(#clip0_2_7)">
<path fill-rule="evenodd" clip-rule="evenodd" d="M3.252 0C2.38952 0 1.56236 0.34262 0.952489 0.952489C0.34262 1.56236 0 2.38952 0 3.252L0 40.748C0 41.6105 0.34262 42.4376 0.952489 43.0475C1.56236 43.6574 2.38952 44 3.252 44H40.139C41.0015 44 41.8286 43.6574 42.4385 43.0475C43.0484 42.4376 43.391 41.6105 43.391 40.748V3.252C43.391 2.38952 43.0484 1.56236 42.4385 0.952489C41.8286 0.34262 41.0015 0 40.139 0L3.252 0ZM34.9 11.165C35.076 9.957 34.254 8.835 33.063 8.656C28.568 7.982 24.309 12.032 19.766 20.804C16.199 27.692 12.991 31.154 10.806 30.99C9.606 30.9 8.561 31.814 8.472 33.03C8.384 34.247 9.285 35.307 10.485 35.397C14.908 35.728 19.11 31.575 23.625 22.858C27.16 16.031 30.318 12.711 32.426 13.028C33.616 13.205 34.724 12.372 34.9 11.164V11.165Z" fill="url(#paint0_linear_2_7)"/>
<path fill-rule="evenodd" clip-rule="evenodd" d="M53.691 34.7V9.3H58.736V30.227H69.813V34.698H53.69L53.691 34.7ZM81.031 35.021C75.528 35.021 71.859 31.194 71.859 25.971C71.859 20.748 75.528 16.956 81.031 16.956C86.393 16.956 90.168 20.606 90.168 25.971C90.168 31.301 86.393 35.021 81.031 35.021ZM81.031 30.801C83.501 30.801 85.476 28.833 85.476 25.971C85.476 23.109 83.571 21.141 81.031 21.141C78.35 21.141 76.551 23.217 76.551 25.971C76.551 28.69 78.385 30.801 81.031 30.801ZM98.246 35.021C95.283 35.021 93.343 33.125 93.343 29.191V21.106H91.296V17.206H93.343V11.52L97.963 11.02V17.208H102.62V21.107H97.964V28.512C97.964 30.05 98.352 30.766 99.445 30.766C100.01 30.766 100.857 30.551 101.633 30.157L102.797 33.913C101.703 34.522 100.574 35.023 98.247 35.023L98.246 35.021ZM111.263 35.021C108.3 35.021 106.36 33.125 106.36 29.191V21.106H104.314V17.206H106.36V11.52L110.981 11.02V17.208H115.637V21.107H110.981V28.512C110.981 30.05 111.369 30.766 112.463 30.766C113.027 30.766 113.874 30.551 114.65 30.157L115.814 33.913C114.72 34.522 113.591 35.023 111.263 35.023V35.021ZM121.529 14.846C119.835 14.846 118.601 13.558 118.601 11.948C118.601 10.374 119.835 9.086 121.529 9.086C123.187 9.086 124.457 10.374 124.457 11.948C124.457 13.558 123.187 14.846 121.529 14.846ZM119.165 34.699V17.207H123.786V34.699H119.165ZM143.577 25.792C143.577 26.364 143.506 27.187 143.471 27.473H131.371C131.935 29.584 133.593 30.836 135.922 30.836C137.862 30.836 139.202 30.013 140.12 28.869L143.118 31.695C141.672 33.59 139.449 35.021 135.604 35.021C130.313 35.021 126.573 31.408 126.573 25.935C126.573 20.605 130.207 16.956 135.322 16.956C140.19 16.956 143.577 20.676 143.577 25.792V25.792ZM135.287 21.034C133.417 21.034 131.935 22.108 131.406 24.111H138.991C138.532 22.251 137.297 21.034 135.287 21.034Z" fill="#18C8CA"/>
<path fill-rule="evenodd" clip-rule="evenodd" d="M175.75 34.7V8.37H180.371V34.7H175.75ZM169.717 14.846C168.024 14.846 166.789 13.558 166.789 11.948C166.789 10.374 168.024 9.087 169.717 9.087C171.375 9.087 172.645 10.374 172.645 11.948C172.645 13.558 171.375 14.846 169.717 14.846ZM146.893 34.7V9.3H163.508V13.772H151.797V20.569H161.568V25.076H151.797V34.7H146.893V34.7ZM167.354 17.207V34.699H171.975V17.207H167.354V17.207ZM200.055 27.474C200.118 26.9154 200.153 26.3541 200.161 25.792C200.161 20.677 196.775 16.956 191.906 16.956C186.791 16.956 183.158 20.606 183.158 25.936C183.158 31.409 186.897 35.022 192.189 35.022C196.034 35.022 198.256 33.591 199.702 31.695L196.704 28.869C195.787 30.013 194.446 30.836 192.506 30.836C190.178 30.836 188.52 29.584 187.955 27.474H200.055V27.474ZM191.871 21.034C190.001 21.034 188.52 22.108 187.991 24.111H195.575C195.116 22.251 193.882 21.035 191.871 21.035V21.034ZM202.348 32.446C204.218 34.091 206.581 35.022 209.333 35.022C213.848 35.022 216 32.661 216 29.584C216 26.114 213.813 25.291 210.074 23.896C208.381 23.252 207.534 22.751 207.534 22.036C207.534 21.106 208.451 20.748 209.157 20.748C210.427 20.748 211.979 21.321 213.284 22.608L215.542 19.138C213.566 17.6 211.626 16.956 209.263 16.956C205.7 16.956 203.018 18.996 203.018 22.143C203.018 25.542 205.488 26.901 208.345 27.867C210.568 28.618 211.45 29.012 211.45 29.763C211.45 30.621 210.709 31.193 209.368 31.193C207.463 31.193 205.982 30.514 204.571 29.191L202.348 32.446V32.446Z" fill="#006B78"/>
</g>
<path d="M232.758 12.824V20.042H241.866V23.768H232.758V31.13H244.314V35H227.898V8.972H244.314V12.824H232.758ZM263.92 16.532L256.594 35H252.562L245.236 16.532H248.908C249.244 16.532 249.52 16.61 249.736 16.766C249.964 16.922 250.114 17.12 250.186 17.36L253.75 27.224C253.942 27.8 254.11 28.364 254.254 28.916C254.398 29.468 254.524 30.02 254.632 30.572C254.752 30.02 254.884 29.468 255.028 28.916C255.172 28.364 255.346 27.8 255.55 27.224L259.186 17.36C259.27 17.12 259.42 16.922 259.636 16.766C259.852 16.61 260.11 16.532 260.41 16.532H263.92ZM275.589 27.116C274.305 27.176 273.225 27.29 272.349 27.458C271.473 27.614 270.771 27.818 270.243 28.07C269.715 28.322 269.337 28.616 269.109 28.952C268.881 29.288 268.767 29.654 268.767 30.05C268.767 30.83 268.995 31.388 269.451 31.724C269.919 32.06 270.525 32.228 271.269 32.228C272.181 32.228 272.967 32.066 273.627 31.742C274.299 31.406 274.953 30.902 275.589 30.23V27.116ZM265.401 19.106C267.525 17.162 270.081 16.19 273.069 16.19C274.149 16.19 275.115 16.37 275.967 16.73C276.819 17.078 277.539 17.57 278.127 18.206C278.715 18.83 279.159 19.58 279.459 20.456C279.771 21.332 279.927 22.292 279.927 23.336V35H277.911C277.491 35 277.167 34.94 276.939 34.82C276.711 34.688 276.531 34.43 276.399 34.046L276.003 32.714C275.535 33.134 275.079 33.506 274.635 33.83C274.191 34.142 273.729 34.406 273.249 34.622C272.769 34.838 272.253 35 271.701 35.108C271.161 35.228 270.561 35.288 269.901 35.288C269.121 35.288 268.401 35.186 267.741 34.982C267.081 34.766 266.511 34.448 266.031 34.028C265.551 33.608 265.179 33.086 264.915 32.462C264.651 31.838 264.519 31.112 264.519 30.284C264.519 29.816 264.597 29.354 264.753 28.898C264.909 28.43 265.161 27.986 265.509 27.566C265.869 27.146 266.331 26.75 266.895 26.378C267.459 26.006 268.149 25.682 268.965 25.406C269.793 25.13 270.753 24.908 271.845 24.74C272.937 24.56 274.185 24.452 275.589 24.416V23.336C275.589 22.1 275.325 21.188 274.797 20.6C274.269 20 273.507 19.7 272.511 19.7C271.791 19.7 271.191 19.784 270.711 19.952C270.243 20.12 269.829 20.312 269.469 20.528C269.109 20.732 268.779 20.918 268.479 21.086C268.191 21.254 267.867 21.338 267.507 21.338C267.195 21.338 266.931 21.26 266.715 21.104C266.499 20.936 266.325 20.744 266.193 20.528L265.401 19.106ZM288.272 18.8C288.644 18.428 289.034 18.086 289.442 17.774C289.862 17.45 290.3 17.18 290.756 16.964C291.224 16.736 291.722 16.562 292.25 16.442C292.778 16.31 293.354 16.244 293.978 16.244C294.986 16.244 295.88 16.418 296.66 16.766C297.44 17.102 298.088 17.582 298.604 18.206C299.132 18.818 299.528 19.556 299.792 20.42C300.068 21.272 300.206 22.214 300.206 23.246V35H295.76V23.246C295.76 22.118 295.502 21.248 294.986 20.636C294.47 20.012 293.684 19.7 292.628 19.7C291.86 19.7 291.14 19.874 290.468 20.222C289.796 20.57 289.16 21.044 288.56 21.644V35H284.114V16.532H286.832C287.408 16.532 287.786 16.802 287.966 17.342L288.272 18.8ZM311.184 25.316C311.736 25.316 312.216 25.244 312.624 25.1C313.032 24.944 313.368 24.734 313.632 24.47C313.908 24.206 314.112 23.888 314.244 23.516C314.388 23.144 314.46 22.736 314.46 22.292C314.46 21.38 314.184 20.66 313.632 20.132C313.092 19.592 312.276 19.322 311.184 19.322C310.092 19.322 309.27 19.592 308.718 20.132C308.178 20.66 307.908 21.38 307.908 22.292C307.908 22.724 307.974 23.126 308.106 23.498C308.25 23.87 308.454 24.194 308.718 24.47C308.994 24.734 309.336 24.944 309.744 25.1C310.164 25.244 310.644 25.316 311.184 25.316ZM316.206 35.828C316.206 35.468 316.098 35.174 315.882 34.946C315.666 34.718 315.372 34.544 315 34.424C314.628 34.292 314.19 34.196 313.686 34.136C313.194 34.076 312.666 34.034 312.102 34.01C311.55 33.974 310.974 33.944 310.374 33.92C309.786 33.896 309.21 33.848 308.646 33.776C308.154 34.052 307.752 34.376 307.44 34.748C307.14 35.12 306.99 35.552 306.99 36.044C306.99 36.368 307.068 36.668 307.224 36.944C307.392 37.232 307.65 37.478 307.998 37.682C308.358 37.886 308.82 38.042 309.384 38.15C309.948 38.27 310.638 38.33 311.454 38.33C312.282 38.33 312.996 38.264 313.596 38.132C314.196 38.012 314.688 37.838 315.072 37.61C315.468 37.394 315.756 37.13 315.936 36.818C316.116 36.518 316.206 36.188 316.206 35.828ZM320.634 17.162V18.818C320.634 19.346 320.316 19.67 319.68 19.79L318.024 20.096C318.276 20.732 318.402 21.428 318.402 22.184C318.402 23.096 318.216 23.924 317.844 24.668C317.484 25.4 316.98 26.024 316.332 26.54C315.684 27.056 314.916 27.458 314.028 27.746C313.152 28.022 312.204 28.16 311.184 28.16C310.824 28.16 310.476 28.142 310.14 28.106C309.804 28.07 309.474 28.022 309.15 27.962C308.574 28.31 308.286 28.7 308.286 29.132C308.286 29.504 308.454 29.78 308.79 29.96C309.138 30.128 309.594 30.248 310.158 30.32C310.722 30.392 311.364 30.44 312.084 30.464C312.804 30.476 313.542 30.512 314.298 30.572C315.054 30.632 315.792 30.74 316.512 30.896C317.232 31.04 317.874 31.274 318.438 31.598C319.002 31.922 319.452 32.366 319.788 32.93C320.136 33.482 320.31 34.196 320.31 35.072C320.31 35.888 320.106 36.68 319.698 37.448C319.302 38.216 318.72 38.9 317.952 39.5C317.196 40.1 316.26 40.58 315.144 40.94C314.04 41.312 312.78 41.498 311.364 41.498C309.972 41.498 308.76 41.36 307.728 41.084C306.696 40.82 305.838 40.46 305.154 40.004C304.47 39.56 303.96 39.044 303.624 38.456C303.288 37.868 303.12 37.256 303.12 36.62C303.12 35.756 303.378 35.036 303.894 34.46C304.422 33.872 305.142 33.404 306.054 33.056C305.562 32.804 305.172 32.468 304.884 32.048C304.596 31.628 304.452 31.076 304.452 30.392C304.452 30.116 304.5 29.834 304.596 29.546C304.704 29.246 304.854 28.952 305.046 28.664C305.25 28.376 305.502 28.106 305.802 27.854C306.102 27.59 306.456 27.356 306.864 27.152C305.928 26.648 305.19 25.976 304.65 25.136C304.122 24.296 303.858 23.312 303.858 22.184C303.858 21.272 304.038 20.45 304.398 19.718C304.77 18.974 305.28 18.344 305.928 17.828C306.588 17.3 307.362 16.898 308.25 16.622C309.15 16.346 310.128 16.208 311.184 16.208C311.976 16.208 312.72 16.292 313.416 16.46C314.112 16.616 314.748 16.85 315.324 17.162H320.634ZM335.035 23.642C335.035 23.066 334.951 22.526 334.783 22.022C334.627 21.506 334.387 21.056 334.063 20.672C333.739 20.288 333.325 19.988 332.821 19.772C332.329 19.544 331.753 19.43 331.093 19.43C329.809 19.43 328.795 19.796 328.051 20.528C327.319 21.26 326.851 22.298 326.647 23.642H335.035ZM326.557 26.324C326.629 27.272 326.797 28.094 327.061 28.79C327.325 29.474 327.673 30.044 328.105 30.5C328.537 30.944 329.047 31.28 329.635 31.508C330.235 31.724 330.895 31.832 331.615 31.832C332.335 31.832 332.953 31.748 333.469 31.58C333.997 31.412 334.453 31.226 334.837 31.022C335.233 30.818 335.575 30.632 335.863 30.464C336.163 30.296 336.451 30.212 336.727 30.212C337.099 30.212 337.375 30.35 337.555 30.626L338.833 32.246C338.341 32.822 337.789 33.308 337.177 33.704C336.565 34.088 335.923 34.4 335.251 34.64C334.591 34.868 333.913 35.03 333.217 35.126C332.533 35.222 331.867 35.27 331.219 35.27C329.935 35.27 328.741 35.06 327.637 34.64C326.533 34.208 325.573 33.578 324.757 32.75C323.941 31.91 323.299 30.878 322.831 29.654C322.363 28.418 322.129 26.99 322.129 25.37C322.129 24.11 322.333 22.928 322.741 21.824C323.149 20.708 323.731 19.742 324.487 18.926C325.255 18.098 326.185 17.444 327.277 16.964C328.381 16.484 329.623 16.244 331.003 16.244C332.167 16.244 333.241 16.43 334.225 16.802C335.209 17.174 336.055 17.72 336.763 18.44C337.471 19.148 338.023 20.024 338.419 21.068C338.827 22.1 339.031 23.282 339.031 24.614C339.031 25.286 338.959 25.742 338.815 25.982C338.671 26.21 338.395 26.324 337.987 26.324H326.557ZM346.868 8.252V35H342.422V8.252H346.868ZM355.906 16.532V35H351.442V16.532H355.906ZM356.518 11.15C356.518 11.534 356.44 11.894 356.284 12.23C356.128 12.566 355.918 12.86 355.654 13.112C355.402 13.364 355.102 13.568 354.754 13.724C354.406 13.868 354.034 13.94 353.638 13.94C353.254 13.94 352.888 13.868 352.54 13.724C352.204 13.568 351.91 13.364 351.658 13.112C351.406 12.86 351.202 12.566 351.046 12.23C350.902 11.894 350.83 11.534 350.83 11.15C350.83 10.754 350.902 10.382 351.046 10.034C351.202 9.686 351.406 9.386 351.658 9.134C351.91 8.882 352.204 8.684 352.54 8.54C352.888 8.384 353.254 8.306 353.638 8.306C354.034 8.306 354.406 8.384 354.754 8.54C355.102 8.684 355.402 8.882 355.654 9.134C355.918 9.386 356.128 9.686 356.284 10.034C356.44 10.382 356.518 10.754 356.518 11.15ZM371.706 20.132C371.586 20.324 371.46 20.462 371.328 20.546C371.196 20.618 371.028 20.654 370.824 20.654C370.608 20.654 370.374 20.594 370.122 20.474C369.882 20.354 369.6 20.222 369.276 20.078C368.952 19.922 368.58 19.784 368.16 19.664C367.752 19.544 367.266 19.484 366.702 19.484C365.826 19.484 365.136 19.67 364.632 20.042C364.14 20.414 363.894 20.9 363.894 21.5C363.894 21.896 364.02 22.232 364.272 22.508C364.536 22.772 364.878 23.006 365.298 23.21C365.73 23.414 366.216 23.6 366.756 23.768C367.296 23.924 367.842 24.098 368.394 24.29C368.958 24.482 369.51 24.704 370.05 24.956C370.59 25.196 371.07 25.508 371.49 25.892C371.922 26.264 372.264 26.714 372.516 27.242C372.78 27.77 372.912 28.406 372.912 29.15C372.912 30.038 372.75 30.86 372.426 31.616C372.114 32.36 371.646 33.008 371.022 33.56C370.398 34.1 369.624 34.526 368.7 34.838C367.788 35.138 366.732 35.288 365.532 35.288C364.896 35.288 364.272 35.228 363.66 35.108C363.06 35 362.478 34.844 361.914 34.64C361.362 34.436 360.846 34.196 360.366 33.92C359.898 33.644 359.484 33.344 359.124 33.02L360.15 31.328C360.282 31.124 360.438 30.968 360.618 30.86C360.798 30.752 361.026 30.698 361.302 30.698C361.578 30.698 361.836 30.776 362.076 30.932C362.328 31.088 362.616 31.256 362.94 31.436C363.264 31.616 363.642 31.784 364.074 31.94C364.518 32.096 365.076 32.174 365.748 32.174C366.276 32.174 366.726 32.114 367.098 31.994C367.482 31.862 367.794 31.694 368.034 31.49C368.286 31.286 368.466 31.052 368.574 30.788C368.694 30.512 368.754 30.23 368.754 29.942C368.754 29.51 368.622 29.156 368.358 28.88C368.106 28.604 367.764 28.364 367.332 28.16C366.912 27.956 366.426 27.776 365.874 27.62C365.334 27.452 364.776 27.272 364.2 27.08C363.636 26.888 363.078 26.666 362.526 26.414C361.986 26.15 361.5 25.82 361.068 25.424C360.648 25.028 360.306 24.542 360.042 23.966C359.79 23.39 359.664 22.694 359.664 21.878C359.664 21.122 359.814 20.402 360.114 19.718C360.414 19.034 360.852 18.44 361.428 17.936C362.016 17.42 362.742 17.012 363.606 16.712C364.482 16.4 365.49 16.244 366.63 16.244C367.902 16.244 369.06 16.454 370.104 16.874C371.148 17.294 372.018 17.846 372.714 18.53L371.706 20.132ZM382.415 35.288C380.807 35.288 379.571 34.838 378.707 33.938C377.855 33.026 377.429 31.772 377.429 30.176V19.862H375.539C375.299 19.862 375.095 19.784 374.927 19.628C374.759 19.472 374.675 19.238 374.675 18.926V17.162L377.645 16.676L378.581 11.636C378.641 11.396 378.755 11.21 378.923 11.078C379.091 10.946 379.307 10.88 379.571 10.88H381.875V16.694H386.807V19.862H381.875V29.87C381.875 30.446 382.013 30.896 382.289 31.22C382.577 31.544 382.967 31.706 383.459 31.706C383.735 31.706 383.963 31.676 384.143 31.616C384.335 31.544 384.497 31.472 384.629 31.4C384.773 31.328 384.899 31.262 385.007 31.202C385.115 31.13 385.223 31.094 385.331 31.094C385.463 31.094 385.571 31.13 385.655 31.202C385.739 31.262 385.829 31.358 385.925 31.49L387.257 33.65C386.609 34.19 385.865 34.598 385.025 34.874C384.185 35.15 383.315 35.288 382.415 35.288ZM422.221 21.986C422.221 23.894 421.903 25.646 421.267 27.242C420.631 28.838 419.737 30.212 418.585 31.364C417.433 32.516 416.047 33.41 414.427 34.046C412.807 34.682 411.007 35 409.027 35H399.109V8.972H409.027C411.007 8.972 412.807 9.296 414.427 9.944C416.047 10.58 417.433 11.474 418.585 12.626C419.737 13.766 420.631 15.134 421.267 16.73C421.903 18.326 422.221 20.078 422.221 21.986ZM417.253 21.986C417.253 20.558 417.061 19.28 416.677 18.152C416.305 17.012 415.759 16.052 415.039 15.272C414.331 14.48 413.467 13.874 412.447 13.454C411.439 13.034 410.299 12.824 409.027 12.824H403.969V31.148H409.027C410.299 31.148 411.439 30.938 412.447 30.518C413.467 30.098 414.331 29.498 415.039 28.718C415.759 27.926 416.305 26.966 416.677 25.838C417.061 24.698 417.253 23.414 417.253 21.986ZM437.446 23.642C437.446 23.066 437.362 22.526 437.194 22.022C437.038 21.506 436.798 21.056 436.474 20.672C436.15 20.288 435.736 19.988 435.232 19.772C434.74 19.544 434.164 19.43 433.504 19.43C432.22 19.43 431.206 19.796 430.462 20.528C429.73 21.26 429.262 22.298 429.058 23.642H437.446ZM428.968 26.324C429.04 27.272 429.208 28.094 429.472 28.79C429.736 29.474 430.084 30.044 430.516 30.5C430.948 30.944 431.458 31.28 432.046 31.508C432.646 31.724 433.306 31.832 434.026 31.832C434.746 31.832 435.364 31.748 435.88 31.58C436.408 31.412 436.864 31.226 437.248 31.022C437.644 30.818 437.986 30.632 438.274 30.464C438.574 30.296 438.862 30.212 439.138 30.212C439.51 30.212 439.786 30.35 439.966 30.626L441.244 32.246C440.752 32.822 440.2 33.308 439.588 33.704C438.976 34.088 438.334 34.4 437.662 34.64C437.002 34.868 436.324 35.03 435.628 35.126C434.944 35.222 434.278 35.27 433.63 35.27C432.346 35.27 431.152 35.06 430.048 34.64C428.944 34.208 427.984 33.578 427.168 32.75C426.352 31.91 425.71 30.878 425.242 29.654C424.774 28.418 424.54 26.99 424.54 25.37C424.54 24.11 424.744 22.928 425.152 21.824C425.56 20.708 426.142 19.742 426.898 18.926C427.666 18.098 428.596 17.444 429.688 16.964C430.792 16.484 432.034 16.244 433.414 16.244C434.578 16.244 435.652 16.43 436.636 16.802C437.62 17.174 438.466 17.72 439.174 18.44C439.882 19.148 440.434 20.024 440.83 21.068C441.238 22.1 441.442 23.282 441.442 24.614C441.442 25.286 441.37 25.742 441.226 25.982C441.082 26.21 440.806 26.324 440.398 26.324H428.968ZM444.778 35V16.532H447.496C448.072 16.532 448.45 16.802 448.63 17.342L448.918 18.71C449.242 18.35 449.578 18.02 449.926 17.72C450.286 17.42 450.664 17.162 451.06 16.946C451.468 16.73 451.9 16.562 452.356 16.442C452.824 16.31 453.334 16.244 453.886 16.244C455.05 16.244 456.004 16.562 456.748 17.198C457.504 17.822 458.068 18.656 458.44 19.7C458.728 19.088 459.088 18.566 459.52 18.134C459.952 17.69 460.426 17.33 460.942 17.054C461.458 16.778 462.004 16.574 462.58 16.442C463.168 16.31 463.756 16.244 464.344 16.244C465.364 16.244 466.27 16.4 467.062 16.712C467.854 17.024 468.52 17.48 469.06 18.08C469.6 18.68 470.008 19.412 470.284 20.276C470.572 21.14 470.716 22.13 470.716 23.246V35H466.27V23.246C466.27 22.07 466.012 21.188 465.496 20.6C464.98 20 464.224 19.7 463.228 19.7C462.772 19.7 462.346 19.778 461.95 19.934C461.566 20.09 461.224 20.318 460.924 20.618C460.636 20.906 460.408 21.272 460.24 21.716C460.072 22.16 459.988 22.67 459.988 23.246V35H455.524V23.246C455.524 22.01 455.272 21.11 454.768 20.546C454.276 19.982 453.55 19.7 452.59 19.7C451.942 19.7 451.336 19.862 450.772 20.186C450.22 20.498 449.704 20.93 449.224 21.482V35H444.778ZM483.114 16.244C484.482 16.244 485.724 16.466 486.84 16.91C487.968 17.354 488.928 17.984 489.72 18.8C490.524 19.616 491.142 20.612 491.574 21.788C492.006 22.964 492.222 24.278 492.222 25.73C492.222 27.194 492.006 28.514 491.574 29.69C491.142 30.866 490.524 31.868 489.72 32.696C488.928 33.524 487.968 34.16 486.84 34.604C485.724 35.048 484.482 35.27 483.114 35.27C481.734 35.27 480.48 35.048 479.352 34.604C478.224 34.16 477.258 33.524 476.454 32.696C475.662 31.868 475.044 30.866 474.6 29.69C474.168 28.514 473.952 27.194 473.952 25.73C473.952 24.278 474.168 22.964 474.6 21.788C475.044 20.612 475.662 19.616 476.454 18.8C477.258 17.984 478.224 17.354 479.352 16.91C480.48 16.466 481.734 16.244 483.114 16.244ZM483.114 31.85C484.65 31.85 485.784 31.334 486.516 30.302C487.26 29.27 487.632 27.758 487.632 25.766C487.632 23.774 487.26 22.256 486.516 21.212C485.784 20.168 484.65 19.646 483.114 19.646C481.554 19.646 480.396 20.174 479.64 21.23C478.896 22.274 478.524 23.786 478.524 25.766C478.524 27.746 478.896 29.258 479.64 30.302C480.396 31.334 481.554 31.85 483.114 31.85Z" fill="#18C8CA"/>
<defs>
<linearGradient id="paint0_linear_2_7" x1="-13.485" y1="25.573" x2="28.352" y2="52.389" gradientUnits="userSpaceOnUse">
<stop stop-color="#2BEAED"/>
<stop offset="1" stop-color="#0FCCCE"/>
</linearGradient>
<clipPath id="clip0_2_7">
<rect width="216" height="44" fill="white"/>
</clipPath>
</defs>
</svg>
